HIERARCHY
ROOT joint_Root
{
	OFFSET 0.0 0.0 0.0
	CHANNELS 6 Xposition Yposition Zposition Zrotation Xrotation Yrotation 
	JOINT Hips
	{
		OFFSET 4.5925 91.4895 -427.239
		CHANNELS 6 Xposition Yposition Zposition Zrotation Xrotation Yrotation 
		JOINT Spine
		{
			OFFSET 15.7357 0.0 0.0
			CHANNELS 6 Xposition Yposition Zposition Zrotation Xrotation Yrotation 
			JOINT Chest
			{
				OFFSET 8.98455 -0.406207 0.0
				CHANNELS 6 Xposition Yposition Zposition Zrotation Xrotation Yrotation 
				JOINT Neck
				{
					OFFSET 16.3773 0.0 0.0
					CHANNELS 6 Xposition Yposition Zposition Zrotation Xrotation Yrotation 
					JOINT Head
					{
						OFFSET 6.45672 0.0 0.0
						CHANNELS 6 Xposition Yposition Zposition Zrotation Xrotation Yrotation 
						End Site
						{
							OFFSET 0.0 0.0 0.0
						}
					}
				}
				JOINT Shoulder_L
				{
					OFFSET 12.9942 -0.242716 4.98039
					CHANNELS 6 Xposition Yposition Zposition Zrotation Xrotation Yrotation 
					JOINT UpperArm_L
					{
						OFFSET 5.34809 0.0 0.0
						CHANNELS 6 Xposition Yposition Zposition Zrotation Xrotation Yrotation 
						JOINT LowerArm_L
						{
							OFFSET 24.3286 1.87007e-05 0.0
							CHANNELS 6 Xposition Yposition Zposition Zrotation Xrotation Yrotation 
							JOINT Hand_L
							{
								OFFSET 22.2916 0.0 0.0
								CHANNELS 6 Xposition Yposition Zposition Zrotation Xrotation Yrotation 
								End Site
								{
									OFFSET 0.0 0.0 0.0
								}
							}
						}
					}
				}
				JOINT Shoulder_R
				{
					OFFSET 12.9945 -0.242716 -4.98039
					CHANNELS 6 Xposition Yposition Zposition Zrotation Xrotation Yrotation 
					JOINT UpperArm_R
					{
						OFFSET -5.34813 0.0 0.0
						CHANNELS 6 Xposition Yposition Zposition Zrotation Xrotation Yrotation 
						JOINT LowerArm_R
						{
							OFFSET -24.3289 0.000322201 0.0
							CHANNELS 6 Xposition Yposition Zposition Zrotation Xrotation Yrotation 
							JOINT Hand_R
							{
								OFFSET -22.2915 -0.000108084 0.0
								CHANNELS 6 Xposition Yposition Zposition Zrotation Xrotation Yrotation 
								End Site
								{
									OFFSET 0.0 0.0 0.0
								}
							}
						}
					}
				}
			}
		}
		JOINT UpperLeg_L
		{
			OFFSET -2.19248 -6.46944 0.0
			CHANNELS 6 Xposition Yposition Zposition Zrotation Xrotation Yrotation 
			JOINT LowerLeg_L
			{
				OFFSET 39.0811 0.0 -1.23785e-05
				CHANNELS 6 Xposition Yposition Zposition Zrotation Xrotation Yrotation 
				JOINT Foot_L
				{
					OFFSET 40.9854 0.0 -1.26872e-05
					CHANNELS 6 Xposition Yposition Zposition Zrotation Xrotation Yrotation 
					JOINT Toes_L
					{
						OFFSET 11.7543 0.0 0.0
						CHANNELS 6 Xposition Yposition Zposition Zrotation Xrotation Yrotation 
						End Site
						{
							OFFSET 0.0 0.0 0.0
						}
					}
				}
			}
		}
		JOINT UpperLeg_R
		{
			OFFSET -2.19251 6.46944 0.0
			CHANNELS 6 Xposition Yposition Zposition Zrotation Xrotation Yrotation 
			JOINT LowerLeg_R
			{
				OFFSET -39.0811 -0.00228153 -0.0401928
				CHANNELS 6 Xposition Yposition Zposition Zrotation Xrotation Yrotation 
				JOINT Foot_R
				{
					OFFSET -40.9854 0.0 0.0
					CHANNELS 6 Xposition Yposition Zposition Zrotation Xrotation Yrotation 
					JOINT Toes_R
					{
						OFFSET -11.7543 0.0 0.0
						CHANNELS 6 Xposition Yposition Zposition Zrotation Xrotation Yrotation 
						End Site
						{
							OFFSET 0.0 0.0 0.0
						}
					}
				}
			}
		}
	}
}
MOTION
Frames:	4
Frame Time:	0.0333333
0.000000 0.000000 0.000000 0.000000 0.000000 -0.000000 -4.739240 87.870400 36.290200 -90.413800 12.305200 -177.610000 15.735700 0.000005 -0.000001 103.715000 84.102500 -102.858000 8.984550 -0.406207 -0.000000 3.676110 2.762290 1.624060 16.377300 -0.000001 -0.000001 -2.774190 -0.357219 3.704400 6.456720 -0.000001 -0.000000 -9.120770 -0.243005 6.687110 12.994200 -0.242716 4.980390 -90.734000 2.407670 -73.041000 5.348090 -0.000007 -0.000001 -74.640100 20.948300 6.548520 24.328600 0.000019 0.000005 -0.000014 29.266000 -0.000003 22.291600 -0.000001 0.000005 8.592500 5.014220 7.015440 12.994500 -0.242716 -4.980390 88.768000 10.194400 -83.071900 -5.348130 -0.000001 -0.000004 -47.377900 21.158400 -33.785500 -24.328900 0.000322 -0.000009 -1.243590 -1.299140 -43.730500 -22.291500 -0.000108 -0.000004 20.918400 5.446010 -4.496820 -2.192480 -6.469440 -0.000000 177.876000 -11.596800 -30.810700 39.081100 -0.000007 -0.000012 0.079473 -0.117301 34.117700 40.985400 -0.000006 -0.000013 2.925290 0.679563 -55.139800 11.754300 -0.000000 0.000003 -0.004131 -0.052802 -18.724700 -2.192510 6.469440 -0.000001 171.816000 8.733750 -171.833000 -39.081100 -0.002282 -0.040193 0.017343 -0.021708 32.907200 -40.985400 0.000008 0.000006 10.975600 14.424300 -75.161200 -11.754300 -0.000006 -0.000006 -0.053836 -0.311184 -29.403100
0.000000 0.000000 0.000000 0.000000 0.000000 -0.000000 -5.237730 86.973800 31.463800 -91.012400 13.266100 -177.405000 15.735700 0.000005 -0.000001 106.508000 84.221700 -106.007000 8.984550 -0.406207 -0.000000 3.304840 3.260600 0.906093 16.377300 -0.000001 -0.000001 -2.298710 -0.397291 3.783460 6.456720 -0.000001 -0.000000 -8.677100 -0.559551 6.669910 12.994200 -0.242716 4.980390 -90.909300 2.860070 -72.355800 5.348090 -0.000007 -0.000001 -73.329600 20.325400 8.007680 24.328600 0.000019 0.000005 0.000060 30.366000 -0.000003 22.291600 -0.000001 0.000005 8.464130 4.979580 7.750730 12.994500 -0.242716 -4.980390 88.690900 10.452000 -82.820300 -5.348130 -0.000001 -0.000004 -47.025400 20.532300 -34.183900 -24.328900 0.000322 -0.000009 -1.021980 -0.935445 -47.506100 -22.291500 -0.000108 -0.000004 21.763900 5.457930 -4.925240 -2.192480 -6.469440 -0.000000 177.239000 -10.972700 -31.458700 39.081100 -0.000007 -0.000012 0.016506 -0.018767 41.327600 40.985400 -0.000006 -0.000013 3.024680 -0.190887 -58.284300 11.754300 -0.000000 0.000003 -0.000003 -0.000039 -16.579000 -2.192510 6.469440 -0.000001 170.724000 5.422330 -171.221000 -39.081100 -0.002282 -0.040193 0.039031 -0.048163 36.580400 -40.985400 0.000008 0.000006 10.534000 12.843900 -73.115400 -11.754300 -0.000006 -0.000006 -0.103750 -0.453766 -35.530400
0.000000 0.000000 0.000000 0.000000 0.000000 -0.000000 -5.621600 86.536400 26.471900 -91.166100 13.388900 -176.308000 15.735700 0.000005 -0.000001 106.725000 84.158200 -106.410000 8.984550 -0.406207 -0.000000 3.419150 3.346390 0.530687 16.377300 -0.000001 -0.000001 -1.980940 -0.441327 3.623990 6.456720 -0.000001 -0.000000 -8.107790 -1.042920 7.012910 12.994200 -0.242716 4.980390 -91.089600 3.302480 -71.728800 5.348090 -0.000007 -0.000001 -72.096400 20.187600 8.728770 24.328600 0.000019 0.000005 0.000026 30.846000 -0.000003 22.291600 -0.000001 0.000005 8.605910 4.977830 7.787370 12.994500 -0.242716 -4.980390 88.621900 10.755200 -82.654300 -5.348130 -0.000001 -0.000004 -48.134200 20.029300 -32.511100 -24.328900 0.000322 -0.000009 -0.616443 -0.512839 -50.193100 -22.291500 -0.000108 -0.000004 22.330900 5.470960 -5.406300 -2.192480 -6.469440 -0.000000 177.015000 -9.949210 -29.274400 39.081100 -0.000007 -0.000012 -0.094031 0.089953 46.271000 40.985400 -0.000006 -0.000013 2.989540 -1.552150 -64.313200 11.754300 -0.000000 0.000003 -0.000111 -0.001127 -16.620700 -2.192510 6.469440 -0.000001 170.341000 3.664430 -171.896000 -39.081100 -0.002282 -0.040193 0.086554 -0.088350 43.309400 -40.985400 0.000008 0.000006 11.400100 11.412300 -65.680600 -11.754300 -0.000006 -0.000006 -0.233060 -0.697389 -46.730500
0.000000 0.000000 0.000000 0.000000 0.000000 -0.000000 -6.061940 86.530000 21.706300 -91.477200 13.280000 -174.692000 15.735700 0.000005 -0.000001 106.972000 83.788900 -106.877000 8.984550 -0.406207 -0.000000 4.118820 3.617540 0.060629 16.377300 -0.000001 -0.000001 -1.799410 -0.785429 3.409670 6.456720 -0.000001 -0.000000 -7.829550 -1.586890 6.989850 12.994200 -0.242716 4.980390 -90.993400 3.011330 -71.733600 5.348090 -0.000007 -0.000001 -71.756300 19.761100 7.761760 24.328600 0.000019 0.000005 0.475209 30.096800 -0.947872 22.291600 -0.000001 0.000005 8.658000 4.998680 7.347410 12.994500 -0.242716 -4.980390 88.655600 10.398800 -82.591700 -5.348130 -0.000001 -0.000004 -51.142300 19.288800 -29.476500 -24.328900 0.000322 -0.000009 -0.437970 -0.350370 -51.265000 -22.291500 -0.000108 -0.000004 22.804400 5.475550 -5.579130 -2.192480 -6.469440 -0.000000 176.384000 -10.829700 -25.027300 39.081100 -0.000007 -0.000012 -0.150836 0.135645 48.036200 40.985400 -0.000006 -0.000013 3.776080 -1.188280 -68.886300 11.754300 -0.000000 0.000003 -0.000289 -0.002519 -16.671500 -2.192510 6.469440 -0.000001 169.355000 3.292800 -175.430000 -39.081100 -0.002282 -0.040193 0.119171 -0.086539 53.261100 -40.985400 0.000008 0.000006 9.352040 11.159700 -53.764700 -11.754300 -0.000006 -0.000006 -0.211346 -0.663626 -45.102900
